<svg width="305" height="109" viewBox="0 0 305 109" xmlns="http://www.w3.org/2000/svg">
<path fill="currentColor" d="M0.34375 24.9062C0.34375 23.4219 0.304688 21.8203 0.226562 20.1016C0.148438 18.3828 0.265625 16.7812 0.578125 15.2969C0.96875 13.8125 1.59375 12.6016 2.45312 11.6641C3.39062 10.6484 4.875 10.1406 6.90625 10.1406C8.39062 12.1719 9.32812 14.7109 9.71875 17.7578C10.1875 20.7266 10.5 23.8906 10.6562 27.25C10.8125 30.5312 10.9688 33.8125 11.125 37.0938C11.3594 40.375 12.0234 43.2656 13.1172 45.7656C13.1953 46.0781 13.5469 46.5469 14.1719 47.1719C14.875 47.7188 15.3438 48.0703 15.5781 48.2266C17.9219 46.1953 20.0312 44.0859 21.9062 41.8984C23.8594 39.7109 25.7734 37.6016 27.6484 35.5703C29.5234 33.4609 31.3984 31.4688 33.2734 29.5938C35.1484 27.7188 37.1797 26.0781 39.3672 24.6719C41.6328 23.2656 44.1328 22.1719 46.8672 21.3906C49.6797 20.5312 52.8438 20.1016 56.3594 20.1016C56.3594 21.9766 55.6953 23.8516 54.3672 25.7266C53.0391 27.6016 51.3594 29.5156 49.3281 31.4688C47.2969 33.3438 45.0703 35.2969 42.6484 37.3281C40.2266 39.2812 37.8828 41.3125 35.6172 43.4219C33.3516 45.4531 31.3203 47.5234 29.5234 49.6328C27.7266 51.6641 26.4375 53.7344 25.6562 55.8438C26.9844 56.1562 29.1719 56.9375 32.2188 58.1875C35.3438 59.3594 38.8594 60.8438 42.7656 62.6406C46.75 64.3594 50.8516 66.2344 55.0703 68.2656C59.2891 70.2969 63.1562 72.3281 66.6719 74.3594C70.1875 76.3125 73.0391 78.1875 75.2266 79.9844C77.4922 81.7031 78.625 83.1094 78.625 84.2031C78.625 84.4375 78.625 84.9453 78.625 85.7266C78.625 86.4297 78.5469 87.1719 78.3906 87.9531C78.3125 88.7344 78.0781 89.4375 77.6875 90.0625C77.2969 90.6094 76.6719 90.8828 75.8125 90.8828C72.5312 90.8047 69.4453 90.2188 66.5547 89.125C63.6641 87.9531 60.8516 86.5469 58.1172 84.9062C55.3828 83.1875 52.6484 81.4297 49.9141 79.6328C47.2578 77.7578 44.5234 76 41.7109 74.3594C38.8984 72.6406 35.9688 71.2734 32.9219 70.2578C29.9531 69.1641 26.7109 68.5391 23.1953 68.3828C22.0234 70.2578 21.5156 72.0938 21.6719 73.8906C21.8281 75.6094 22.3359 77.3672 23.1953 79.1641C24.1328 80.8828 25.2266 82.6797 26.4766 84.5547C27.7266 86.3516 28.8203 88.2656 29.7578 90.2969C30.6953 92.25 31.3203 94.3203 31.6328 96.5078C31.9453 98.6953 31.5938 101 30.5781 103.422C30.4219 103.656 30.1094 103.93 29.6406 104.242C29.25 104.477 28.7813 104.75 28.2344 105.062C27.7656 105.375 27.2578 105.609 26.7109 105.766C26.1641 105.922 25.8125 106 25.6562 106C24.6406 106 23.5078 105.023 22.2578 103.07C21.0859 101.117 19.7969 98.4609 18.3906 95.1016C17.0625 91.7422 15.6562 87.9141 14.1719 83.6172C12.7656 79.2422 11.3594 74.75 9.95312 70.1406C8.625 65.4531 7.375 60.7656 6.20312 56.0781C5.10938 51.3125 4.09375 46.8984 3.15625 42.8359C2.29688 38.6953 1.59375 35.0625 1.04688 31.9375C0.578125 28.8125 0.34375 26.4688 0.34375 24.9062ZM108.391 3.10938C108.859 1.70312 109.523 0.882812 110.383 0.648438C111.32 0.414062 112.375 0.296875 113.547 0.296875C115.344 0.296875 117.336 1.50781 119.523 3.92969C121.789 6.27344 124.094 9.4375 126.438 13.4219C128.781 17.4062 131.125 21.9766 133.469 27.1328C135.891 32.2891 138.195 37.6406 140.383 43.1875C142.648 48.6562 144.758 54.125 146.711 59.5938C148.664 65.0625 150.344 70.1016 151.75 74.7109C153.234 79.2422 154.367 83.1875 155.148 86.5469C155.93 89.9062 156.32 92.2109 156.32 93.4609C156.32 94.7109 156.008 95.9219 155.383 97.0938C154.836 98.1875 153.82 98.7344 152.336 98.7344C151.398 98.7344 150.578 98.4609 149.875 97.9141C149.25 97.2891 148.703 96.5469 148.234 95.6875C147.766 94.8281 147.336 93.9688 146.945 93.1094C146.555 92.25 146.203 91.5078 145.891 90.8828C145.578 90.0234 144.914 88.3828 143.898 85.9609C142.961 83.5391 141.945 81 140.852 78.3438C139.836 75.6875 138.859 73.1875 137.922 70.8438C136.984 68.5 136.32 66.8203 135.93 65.8047C130.461 64.8672 124.953 64.0078 119.406 63.2266C113.938 62.3672 108.156 61.5469 102.062 60.7656H100.773C97.9609 72.875 95.4609 82.4453 93.2734 89.4766C91.1641 96.5078 89.3672 101.508 87.8828 104.477C86.4766 107.445 85.3438 108.656 84.4844 108.109C83.7031 107.641 83.1562 105.883 82.8438 102.836C82.6094 99.7109 82.6484 95.5703 82.9609 90.4141C83.3516 85.2578 84.0156 79.5938 84.9531 73.4219C85.9688 67.1719 87.1797 60.6484 88.5859 53.8516C89.9922 47.0547 91.6719 40.4922 93.625 34.1641C95.6562 27.8359 97.8828 21.9766 100.305 16.5859C102.805 11.1172 105.5 6.625 108.391 3.10938ZM105.578 44.3594C105.578 47.25 106.516 49.3984 108.391 50.8047C110.266 52.1328 112.531 52.9922 115.188 53.3828C117.844 53.7734 120.617 53.9297 123.508 53.8516C126.477 53.7734 129.016 53.7344 131.125 53.7344C131.125 50.6094 130.617 47.25 129.602 43.6562C128.586 39.9844 127.297 36.3516 125.734 32.7578C124.172 29.1641 122.492 25.6875 120.695 22.3281C118.977 18.8906 117.375 15.8047 115.891 13.0703C115.031 13.9297 114.094 15.5312 113.078 17.875C112.141 20.1406 111.164 22.7188 110.148 25.6094C109.211 28.4219 108.352 31.1953 107.57 33.9297C106.789 36.6641 106.203 38.8906 105.812 40.6094C105.812 40.8438 105.773 41.4688 105.695 42.4844C105.617 43.4219 105.578 44.0469 105.578 44.3594ZM161.125 29.125C161.125 27.5625 161.633 26.5469 162.648 26.0781C163.742 25.6094 164.914 25.375 166.164 25.375C166.398 25.375 166.828 25.4141 167.453 25.4922C168.156 25.5703 168.586 25.6094 168.742 25.6094C168.977 28.0312 169.211 30.9609 169.445 34.3984C169.68 37.7578 169.953 41.4297 170.266 45.4141C170.578 49.3203 170.969 53.3828 171.438 57.6016C171.906 61.8203 172.57 65.9609 173.43 70.0234C174.289 74.0078 175.344 77.8359 176.594 81.5078C177.844 85.1016 179.367 88.2266 181.164 90.8828C181.555 91.5859 181.906 92.1328 182.219 92.5234C182.609 92.8359 182.961 93.1094 183.273 93.3438C183.664 93.5 184.094 93.6172 184.562 93.6953C185.031 93.6953 185.617 93.6953 186.32 93.6953C189.523 93.6953 192.57 93.1484 195.461 92.0547C198.43 90.9609 201.359 89.75 204.25 88.4219C207.141 87.0938 210.07 85.8828 213.039 84.7891C216.008 83.6953 219.133 83.1484 222.414 83.1484C223.117 83.1484 224.016 83.1484 225.109 83.1484C226.203 83.0703 227.219 83.1094 228.156 83.2656C229.094 83.4219 229.914 83.8125 230.617 84.4375C231.32 85.0625 231.672 86 231.672 87.25C231.672 88.4219 230.617 89.7109 228.508 91.1172C226.398 92.4453 223.703 93.8125 220.422 95.2188C217.141 96.5469 213.547 97.875 209.641 99.2031C205.812 100.531 202.102 101.703 198.508 102.719C194.992 103.734 191.867 104.555 189.133 105.18C186.398 105.727 184.602 106 183.742 106C180.93 106 178.43 105.062 176.242 103.188C174.133 101.234 172.258 98.6562 170.617 95.4531C169.055 92.1719 167.727 88.4609 166.633 84.3203C165.539 80.1016 164.641 75.7266 163.938 71.1953C163.234 66.6641 162.688 62.1719 162.297 57.7188C161.906 53.2656 161.633 49.125 161.477 45.2969C161.32 41.4688 161.203 38.1094 161.125 35.2188C161.125 32.3281 161.125 30.2969 161.125 29.125ZM233.898 29.125C233.898 27.5625 234.406 26.5469 235.422 26.0781C236.516 25.6094 237.688 25.375 238.938 25.375C239.172 25.375 239.602 25.4141 240.227 25.4922C240.93 25.5703 241.359 25.6094 241.516 25.6094C241.75 28.0312 241.984 30.9609 242.219 34.3984C242.453 37.7578 242.727 41.4297 243.039 45.4141C243.352 49.3203 243.742 53.3828 244.211 57.6016C244.68 61.8203 245.344 65.9609 246.203 70.0234C247.062 74.0078 248.117 77.8359 249.367 81.5078C250.617 85.1016 252.141 88.2266 253.938 90.8828C254.328 91.5859 254.68 92.1328 254.992 92.5234C255.383 92.8359 255.734 93.1094 256.047 93.3438C256.438 93.5 256.867 93.6172 257.336 93.6953C257.805 93.6953 258.391 93.6953 259.094 93.6953C262.297 93.6953 265.344 93.1484 268.234 92.0547C271.203 90.9609 274.133 89.75 277.023 88.4219C279.914 87.0938 282.844 85.8828 285.812 84.7891C288.781 83.6953 291.906 83.1484 295.188 83.1484C295.891 83.1484 296.789 83.1484 297.883 83.1484C298.977 83.0703 299.992 83.1094 300.93 83.2656C301.867 83.4219 302.688 83.8125 303.391 84.4375C304.094 85.0625 304.445 86 304.445 87.25C304.445 88.4219 303.391 89.7109 301.281 91.1172C299.172 92.4453 296.477 93.8125 293.195 95.2188C289.914 96.5469 286.32 97.875 282.414 99.2031C278.586 100.531 274.875 101.703 271.281 102.719C267.766 103.734 264.641 104.555 261.906 105.18C259.172 105.727 257.375 106 256.516 106C253.703 106 251.203 105.062 249.016 103.188C246.906 101.234 245.031 98.6562 243.391 95.4531C241.828 92.1719 240.5 88.4609 239.406 84.3203C238.312 80.1016 237.414 75.7266 236.711 71.1953C236.008 66.6641 235.461 62.1719 235.07 57.7188C234.68 53.2656 234.406 49.125 234.25 45.2969C234.094 41.4688 233.977 38.1094 233.898 35.2188C233.898 32.3281 233.898 30.2969 233.898 29.125Z"/>
</svg>
